<svg xmlns="http://www.w3.org/2000/svg" viewBox="0 0 512 512" width="512" height="512">
  <!-- Fond noir arrondi -->
  <rect width="512" height="512" rx="100" fill="#111111"/>
  
  <!-- Pelouse verte -->
  <ellipse cx="256" cy="256" rx="200" ry="160" fill="#2d8a4e"/>
  
  <!-- Lignes blanches du terrain -->
  <!-- Bordure terrain -->
  <ellipse cx="256" cy="256" rx="200" ry="160" fill="none" stroke="white" stroke-width="6"/>
  
  <!-- Cercle central -->
  <circle cx="256" cy="256" r="55" fill="none" stroke="white" stroke-width="5"/>
  
  <!-- Point central -->
  <circle cx="256" cy="256" r="6" fill="white"/>
  
  <!-- Ligne médiane verticale -->
  <line x1="256" y1="96" x2="256" y2="416" stroke="white" stroke-width="5"/>
  
  <!-- Surface de réparation gauche -->
  <path d="M 56 206 L 56 306 L 126 306 L 126 206 Z" fill="none" stroke="white" stroke-width="5"/>
  
  <!-- Surface de réparation droite -->
  <path d="M 456 206 L 456 306 L 386 306 L 386 206 Z" fill="none" stroke="white" stroke-width="5"/>
  
  <!-- Petite surface gauche -->
  <path d="M 56 236 L 56 276 L 90 276 L 90 236 Z" fill="none" stroke="white" stroke-width="4"/>
  
  <!-- Petite surface droite -->
  <path d="M 456 236 L 456 276 L 422 276 L 422 236 Z" fill="none" stroke="white" stroke-width="4"/>

  <!-- Tribunes / gradins autour -->
  <ellipse cx="256" cy="256" rx="235" ry="195" fill="none" stroke="#1a56db" stroke-width="18" stroke-dasharray="1 0" opacity="0.85"/>
  <ellipse cx="256" cy="256" rx="218" ry="178" fill="none" stroke="#1a56db" stroke-width="6" opacity="0.5"/>
</svg>
